<svg width="28" height="29" viewBox="0 0 28 29" fill="none" xmlns="http://www.w3.org/2000/svg">
<path fill-rule="evenodd" clip-rule="evenodd" d="M0 6.67084C0 5.31986 0.526063 4.02421 1.46246 3.06892C2.39886 2.11363 3.66889 1.57696 4.99315 1.57696H8.66993C9.37079 1.57696 9.94908 1.91778 10.3095 2.41606H16.6145C16.8031 2.15397 17.05 1.94126 17.3349 1.7954C17.6197 1.64953 17.9344 1.57467 18.2531 1.57696H21.9299C23.2542 1.57696 24.5242 2.11363 25.4606 3.06892C26.397 4.02421 26.9231 5.31986 26.9231 6.67084V13.1956C26.9231 14.3052 26.1596 15.0572 25.2781 15.2397V20.0131C25.2781 21.2413 24.7998 22.4191 23.9486 23.2876C23.0973 24.156 21.9427 24.6439 20.7388 24.6439H18.9086C18.8154 24.6439 18.7261 24.6303 18.6408 24.6032C18.1288 25.0505 17.5577 25.4552 16.9386 25.7859C17.053 25.4265 17.1147 25.0422 17.1147 24.6439V23.4816C17.444 23.2238 17.7536 22.9408 18.0407 22.6351C19.2554 21.3422 19.8882 19.8594 19.8882 18.9425C19.8882 17.2356 19.112 16.1603 17.9581 15.4647C16.7507 14.7377 15.1165 14.4274 13.5324 14.4274C11.753 14.4274 10.1116 14.7748 8.94773 15.511C7.8338 16.2149 7.12114 17.2856 7.12114 18.9425C7.12114 20.428 7.92277 21.8923 9.19103 23.0157C9.39802 23.1985 9.61348 23.3692 9.83742 23.5279V24.6439C9.83742 25.0394 9.89824 25.421 10.0117 25.7775C9.36438 25.4507 8.75555 25.0499 8.19694 24.5828C8.09347 24.6232 7.98362 24.6439 7.87284 24.6439H6.2133C5.00942 24.6439 3.85485 24.156 3.00358 23.2876C2.15231 22.4191 1.67407 21.2413 1.67407 20.0131V15.2452C0.780747 15.073 0 14.3172 0 13.1956V6.67084ZM16.2069 24.6439C16.2055 25.2288 16.0237 25.7984 15.6873 26.272C15.3508 26.7456 14.8768 27.0991 14.3324 27.2825C13.7881 27.4659 13.2009 27.4699 12.6542 27.2939C12.1074 27.1179 11.6289 26.7707 11.2863 26.3018C10.9347 25.8235 10.7449 25.2417 10.7453 24.6439V22.7453C10.6071 22.7667 10.4674 22.7772 10.3277 22.7768C10.2073 22.7768 10.0918 22.728 10.0067 22.6411C9.92156 22.5543 9.87373 22.4365 9.87373 22.3137C9.87373 22.1909 9.92156 22.0731 10.0067 21.9863C10.0918 21.8994 10.2073 21.8506 10.3277 21.8506C10.6735 21.8506 11.0739 21.7487 11.4579 21.5385L12.1352 21.0217C12.61 20.5327 12.9677 19.8205 13.0158 18.8638C13.0131 18.7888 13.0119 18.7137 13.0122 18.6387C13.0122 18.5159 13.06 18.3981 13.1451 18.3112C13.2302 18.2244 13.3457 18.1756 13.4661 18.1756H13.4761C13.5965 18.1756 13.7119 18.2244 13.797 18.3112C13.8822 18.3981 13.93 18.5159 13.93 18.6387C13.93 18.7153 13.9285 18.7906 13.9254 18.8647C13.9736 19.801 14.3176 20.504 14.7788 20.993L15.5196 21.558C15.8918 21.7552 16.2786 21.8506 16.6145 21.8506C16.7349 21.8506 16.8503 21.8994 16.9355 21.9863C17.0206 22.0731 17.0684 22.1909 17.0684 22.3137C17.0684 22.4365 17.0206 22.5543 16.9355 22.6411C16.8503 22.728 16.7349 22.7768 16.6145 22.7768C16.4813 22.7768 16.3452 22.7669 16.206 22.7471L16.2069 24.6439ZM10.3367 4.86575C10.4693 4.67496 10.5655 4.47306 10.6272 4.26838H16.2967C16.3585 4.47306 16.4547 4.67496 16.5873 4.86575L23.2145 14.4006C23.2914 14.5117 23.374 14.6111 23.4624 14.6988V20.0131C23.4624 20.75 23.1754 21.4567 22.6647 21.9778C22.1539 22.4989 21.4612 22.7916 20.7388 22.7916H20.2677C21.1483 21.5367 21.703 20.1391 21.703 18.9425C21.703 16.5048 20.5219 14.8581 18.8814 13.8699C17.2926 12.9132 15.2972 12.5751 13.5324 12.5751C11.5687 12.5751 9.54963 12.9511 7.99086 13.9366C6.37852 14.9563 5.30545 16.6048 5.30545 18.9425C5.30545 20.3558 5.79569 21.6709 6.56191 22.7916H6.2133C5.49097 22.7916 4.79823 22.4989 4.28747 21.9778C3.7767 21.4567 3.48976 20.75 3.48976 20.0131V14.6692C3.56723 14.5889 3.64046 14.4994 3.70946 14.4006L10.3367 4.86575ZM10.7525 8.89918C10.5118 8.89918 10.2808 8.99676 10.1106 9.17045C9.94033 9.34414 9.84468 9.57971 9.84468 9.82535V10.7515C9.84468 10.9971 9.94033 11.2327 10.1106 11.4064C10.2808 11.5801 10.5118 11.6777 10.7525 11.6777C10.9933 11.6777 11.2242 11.5801 11.3945 11.4064C11.5647 11.2327 11.6604 10.9971 11.6604 10.7515V9.82535C11.6604 9.57971 11.5647 9.34414 11.3945 9.17045C11.2242 8.99676 10.9933 8.89918 10.7525 8.89918ZM16.1996 8.89918C15.9588 8.89918 15.7279 8.99676 15.5577 9.17045C15.3874 9.34414 15.2918 9.57971 15.2918 9.82535V10.7515C15.2918 10.9971 15.3874 11.2327 15.5577 11.4064C15.7279 11.5801 15.9588 11.6777 16.1996 11.6777C16.4404 11.6777 16.6713 11.5801 16.8415 11.4064C17.0118 11.2327 17.1074 10.9971 17.1074 10.7515V9.82535C17.1074 9.57971 17.0118 9.34414 16.8415 9.17045C16.6713 8.99676 16.4404 8.89918 16.1996 8.89918ZM14.5155 15.3823H12.4121C11.8819 15.3823 11.3889 16.1381 11.8329 16.7465C12.1343 17.1596 12.8914 17.9858 13.5042 17.9858C14.117 17.9858 14.836 17.1596 15.1184 16.7465C15.6077 15.9649 14.9504 15.3934 14.5155 15.3823Z" fill="white"/>
</svg>
